<svg xmlns="http://www.w3.org/2000/svg" version="1.1" xmlns:xlink="http://www.w3.org/1999/xlink" width="512" height="512" x="0" y="0" viewBox="0 0 24 24" style="enable-background:new 0 0 512 512" xml:space="preserve" class="hovered-paths"><g><path d="M12 0C5.383 0 0 5.383 0 12s5.383 12 12 12 12-5.383 12-12S18.617 0 12 0ZM8.857 18a2.804 2.804 0 0 1-2-.813l-.522-.6a1.143 1.143 0 0 1 0-1.616l1.302-1a1.143 1.143 0 0 1 1.616 0l1.069.851c2.071-.791 3.599-2.256 4.5-4.5l-.851-1.069a1.143 1.143 0 0 1 0-1.616l1-1.302a1.143 1.143 0 0 1 1.616 0l.6.522c.552.551.813 1.277.813 2 0 4-5.429 9.143-9.143 9.143Z" fill="#000000" opacity="1" data-original="#000000" class="hovered-path"></path></g></svg>